<svg version="1.0" xmlns="http://www.w3.org/2000/svg"
 width="500.000000pt" height="500.000000pt" viewBox="0 0 500.000000 500.000000"
 preserveAspectRatio="xMidYMid meet">

<g transform="translate(0.000000,500.000000) scale(0.100000,-0.100000)"
fill="#000000" stroke="none">
<path d="M2260 4988 c-489 -51 -940 -234 -1330 -542 -41 -33 -133 -118 -205
-190 -393 -396 -627 -876 -707 -1451 -17 -120 -16 -494 0 -615 78 -554 303
-1024 679 -1420 526 -553 1312 -841 2063 -755 427 49 781 177 1123 406 613
409 993 1021 1099 1774 17 117 16 492 -1 615 -114 833 -597 1524 -1333 1909
-415 217 -930 317 -1388 269z m593 -53 c436 -69 806 -226 1152 -489 111 -84
312 -281 408 -401 277 -344 452 -747 524 -1205 27 -176 24 -541 -5 -715 -91
-529 -306 -960 -666 -1333 -209 -216 -419 -370 -681 -498 -297 -145 -546 -214
-880 -245 -140 -13 -404 -6 -550 15 -550 81 -1031 326 -1415 722 -194 200
-314 367 -436 609 -126 249 -202 494 -245 790 -18 116 -18 500 -1 620 66 458
222 837 495 1200 78 103 339 364 442 442 311 234 655 392 1010 462 87 17 136
25 305 45 75 9 449 -4 543 -19z"/>
<path d="M2265 4873 c-347 -43 -571 -109 -846 -249 -610 -310 -1065 -877
-1228 -1532 -59 -236 -66 -294 -66 -592 0 -224 4 -294 19 -375 49 -267 107
-449 215 -670 235 -479 600 -847 1076 -1085 267 -133 473 -196 775 -236 162
-21 527 -15 670 11 564 102 1055 372 1403 773 339 390 536 836 588 1330 17
165 7 507 -20 652 -91 502 -310 925 -663 1281 -369 374 -857 615 -1381 684
-108 14 -454 19 -542 8z m526 -47 c260 -33 491 -102 734 -220 478 -234 842
-597 1080 -1078 158 -320 235 -654 236 -1023 0 -399 -76 -717 -252 -1065 -335
-661 -955 -1119 -1694 -1251 -114 -21 -162 -24 -390 -24 -205 0 -283 4 -367
18 -509 86 -940 307 -1298 666 -203 205 -326 377 -451 636 -176 364 -250 737
-228 1148 27 500 213 974 536 1364 375 453 949 767 1523 832 125 14 446 12
571 -3z"/>
<path d="M2623 4584 c6 -33 -20 -230 -34 -256 -8 -15 -6 -18 10 -18 11 0 26
-3 35 -6 14 -5 16 4 17 62 1 38 5 83 9 99 6 28 9 25 53 -68 36 -76 52 -99 73
-107 42 -16 51 1 68 136 8 66 18 128 22 137 5 14 0 17 -25 17 -31 0 -31 0 -32
-57 -1 -32 -4 -69 -8 -83 -7 -22 -12 -16 -52 63 -24 48 -50 89 -59 91 -8 3
-30 8 -49 11 -33 7 -34 6 -28 -21z"/>
<path d="M2280 4579 c0 -31 -50 -218 -67 -252 -18 -35 -13 -41 26 -32 26 5 30
11 33 43 3 36 4 37 47 40 47 4 61 -6 61 -45 0 -21 5 -23 48 -23 27 0 51 2 53
5 3 2 -17 50 -43 107 -87 184 -79 173 -120 176 -34 3 -38 1 -38 -19z m60 -146
c0 -7 -12 -13 -26 -13 -24 0 -25 2 -19 33 4 17 10 36 13 42 6 9 31 -40 32 -62z"/>
<path d="M1970 4549 c-32 -13 -40 -26 -40 -70 0 -55 -12 -129 -20 -129 -4 0
-29 29 -55 64 -26 36 -54 67 -63 71 -8 3 -30 0 -49 -6 -27 -8 -33 -15 -27 -28
21 -45 66 -191 71 -228 3 -24 7 -43 8 -43 1 0 16 5 33 11 29 10 30 12 18 32
-16 25 -48 118 -43 123 2 2 25 -25 50 -61 47 -65 70 -78 95 -53 7 7 12 45 12
98 0 97 10 94 36 -12 9 -38 19 -68 21 -68 3 0 23 5 45 12 29 8 38 16 34 27
-51 150 -67 202 -72 234 -7 39 -13 42 -54 26z"/>
<path d="M3050 4522 c0 -10 -11 -52 -25 -92 -41 -120 -31 -181 35 -215 16 -8
47 -15 69 -15 58 0 94 35 121 118 12 37 31 82 41 100 l19 33 -26 9 c-38 15
-44 13 -44 -19 0 -35 -46 -159 -68 -184 -24 -27 -73 -19 -91 15 -14 24 -14 32
3 85 11 32 29 79 42 105 l22 47 -46 15 c-56 20 -52 20 -52 -2z"/>
<path d="M1508 4373 c-15 -10 -29 -22 -32 -28 -2 -6 2 -49 10 -95 7 -46 11
-86 9 -89 -3 -2 -21 9 -41 25 -20 16 -53 42 -74 57 l-37 29 -43 -22 c-43 -22
-43 -22 -23 -39 23 -17 120 -182 129 -218 6 -21 8 -22 35 -8 l29 15 -34 48
c-18 26 -39 58 -46 72 -13 24 -12 24 6 10 10 -8 38 -31 61 -52 43 -38 66 -45
93 -28 12 7 12 18 1 72 -7 35 -15 74 -17 88 -4 17 6 7 30 -30 20 -30 36 -63
36 -72 0 -23 11 -23 54 3 40 23 43 31 22 48 -17 15 -126 204 -126 220 0 15
-10 13 -42 -6z"/>
<path d="M3457 4373 c-4 -3 -7 -13 -7 -20 0 -16 -106 -199 -120 -208 -24 -15
-4 -33 79 -78 48 -26 91 -47 94 -47 3 0 16 14 28 31 l22 31 -30 -6 c-31 -7
-103 19 -103 36 0 14 30 68 37 68 4 0 16 -9 28 -20 l21 -20 16 34 17 34 -29 6
c-27 5 -29 7 -19 35 17 49 34 56 69 31 16 -12 33 -33 36 -47 7 -25 8 -25 20
-8 19 25 17 49 -3 67 -30 26 -149 88 -156 81z"/>
<path d="M3758 4157 c-9 -18 -50 -71 -92 -119 l-76 -88 76 -60 c80 -64 101
-71 127 -42 23 25 21 33 -6 27 -23 -6 -87 29 -94 51 -4 13 122 173 143 181 22
8 17 19 -24 52 l-39 30 -15 -32z"/>
<path d="M1090 4090 l-35 -29 26 -23 c39 -34 136 -151 153 -182 l14 -28 39 36
c33 32 36 37 21 46 -21 13 -168 188 -168 200 0 16 -13 11 -50 -20z"/>
<path d="M2329 3895 c-15 -8 -34 -30 -43 -49 -32 -68 -14 -146 58 -245 66 -91
84 -158 57 -209 -13 -24 -9 -27 20 -12 45 25 64 125 35 193 -7 18 -36 67 -63
109 -62 94 -72 135 -45 189 21 43 20 45 -19 24z"/>
<path d="M1954 3750 c-28 -11 -60 -56 -68 -97 -11 -48 9 -103 69 -195 68 -101
83 -145 68 -199 -12 -47 -4 -49 31 -9 55 67 45 136 -41 272 -67 106 -79 162
-44 209 23 30 20 33 -15 19z"/>
<path d="M2742 3746 c-86 -47 -81 -166 12 -296 19 -26 41 -61 50 -78 18 -35
21 -104 6 -133 -21 -38 23 -13 53 31 20 29 23 106 5 147 -7 15 -36 66 -65 112
-64 103 -72 137 -45 191 21 43 19 46 -16 26z"/>
<path d="M2542 3049 c289 -19 522 -86 592 -169 14 -17 26 -41 26 -54 0 -79
-142 -150 -398 -198 -103 -20 -151 -22 -397 -23 -225 0 -303 4 -395 18 -117
19 -287 67 -327 93 -35 22 -27 0 12 -35 210 -184 926 -248 1394 -125 52 13 97
22 100 19 9 -9 -37 -131 -86 -230 -122 -245 -302 -410 -521 -475 -97 -30 -273
-25 -372 9 -187 65 -356 220 -473 435 -46 86 -39 51 13 -61 112 -240 323 -437
545 -509 61 -20 108 -28 200 -31 147 -7 244 14 377 80 l87 44 46 -18 c118 -45
113 -112 -13 -153 -158 -52 -374 -76 -695 -76 -230 0 -357 9 -501 35 -92 18
-96 18 -76 5 21 -14 106 -38 191 -54 166 -31 292 -38 644 -34 300 4 368 8 475
27 202 34 330 88 330 136 0 47 -97 93 -273 128 l-107 22 60 51 c89 78 141 141
237 293 1 2 28 -25 59 -59 66 -71 117 -100 174 -100 56 0 87 18 152 88 138
150 221 423 162 537 -53 102 -235 116 -366 30 -21 -14 -39 -25 -41 -25 -2 0
-2 22 1 49 2 28 2 62 -2 76 -17 66 -118 136 -265 184 -143 47 -404 82 -585 80
l-101 -2 117 -8z m1077 -464 c71 -61 35 -247 -69 -354 -33 -34 -47 -41 -78
-41 -53 0 -103 38 -153 117 l-20 32 25 81 c14 45 26 90 26 101 0 42 93 88 182
88 46 1 62 -4 87 -24z"/>
<path d="M2219 2929 c-53 -5 -114 -12 -135 -17 -34 -7 -25 -9 62 -15 155 -11
248 -45 242 -90 -4 -31 -76 -64 -168 -78 -90 -14 -265 -6 -332 14 -58 18 -52
2 8 -25 130 -57 451 -89 691 -69 240 20 393 61 428 114 22 35 7 60 -54 91
-132 67 -457 100 -742 75z"/>
<path d="M3007 866 c-42 -13 -80 -26 -84 -29 -3 -4 1 -21 9 -39 9 -18 28 -80
44 -138 15 -58 28 -106 29 -107 0 -1 45 11 98 28 l97 30 0 34 c0 42 -14 52
-28 20 -11 -23 -85 -56 -97 -43 -3 3 -9 22 -12 42 -5 35 -5 36 25 36 30 0 31
0 20 33 -14 42 -13 41 -40 23 -24 -15 -25 -15 -36 9 -16 36 -15 62 4 69 24 9
63 7 85 -4 24 -13 26 6 3 38 -18 27 -20 27 -117 -2z"/>
<path d="M1930 859 c-99 -40 -130 -176 -56 -253 49 -52 145 -69 177 -30 18 22
2 32 -46 26 -34 -3 -50 0 -64 12 -40 36 -32 119 15 176 35 41 68 39 110 -5 36
-39 31 -41 50 28 4 11 0 17 -10 17 -9 0 -33 9 -53 20 -41 22 -83 25 -123 9z"/>
<path d="M2677 800 c-32 -4 -60 -10 -63 -12 -2 -3 0 -25 6 -49 5 -24 13 -90
16 -147 6 -83 10 -102 21 -97 8 3 30 5 50 5 30 0 34 3 28 18 -4 9 -10 37 -13
61 l-5 44 38 -7 c36 -7 37 -6 31 16 -3 13 -6 30 -6 40 0 14 -4 15 -30 5 -36
-13 -37 -12 -46 40 -6 42 -6 42 30 48 26 5 43 3 62 -10 32 -20 39 -15 27 22
-8 24 -15 28 -49 29 -21 1 -65 -2 -97 -6z"/>
<path d="M2310 780 c0 -22 -71 -188 -102 -237 l-20 -33 35 0 c32 0 35 3 41 35
6 32 10 35 41 35 53 0 65 -9 65 -45 0 -37 12 -45 70 -45 l39 0 -14 33 c-7 18
-26 80 -40 138 -15 57 -34 112 -42 122 -23 24 -73 23 -73 -3z m39 -142 c1 -13
-6 -18 -24 -18 -29 0 -31 10 -8 53 l17 32 7 -25 c4 -14 7 -33 8 -42z"/>
</g>
</svg>
