<?xml version="1.0" standalone="no"?>
<!DOCTYPE svg PUBLIC "-//W3C//DTD SVG 20010904//EN"
 "http://www.w3.org/TR/2001/REC-SVG-20010904/DTD/svg10.dtd">
<svg version="1.0" xmlns="http://www.w3.org/2000/svg"
 width="500.000000pt" height="500.000000pt" viewBox="0 0 500.000000 500.000000"
 preserveAspectRatio="xMidYMid meet">
<g transform="translate(0.000000,500.000000) scale(0.100000,-0.100000)"
fill="#000000" stroke="none">
<path d="M2310 4954 c-170 -20 -218 -28 -305 -45 -378 -75 -773 -263 -1066
-508 -769 -643 -1075 -1642 -798 -2601 108 -370 313 -720 594 -1009 395 -407
864 -644 1440 -727 164 -24 486 -24 650 0 577 84 1048 322 1441 728 261 270
446 574 563 923 96 285 125 472 125 785 0 313 -29 497 -125 785 -173 520 -524
973 -996 1282 -281 185 -622 313 -983 368 -100 15 -464 28 -540 19z m43 -331
c8 -10 34 -61 57 -113 23 -52 50 -109 61 -126 l19 -32 -22 -6 c-13 -3 -38 -6
-55 -6 -28 0 -33 4 -33 23 0 39 -14 49 -61 45 -43 -3 -44 -4 -47 -40 -3 -36
-5 -38 -38 -38 -30 0 -33 2 -25 18 14 26 71 243 71 270 0 18 6 22 28 22 16 0
36 -8 45 -17z m349 6 c11 -6 38 -50 60 -97 46 -99 56 -96 57 21 1 59 3 67 20
67 37 0 51 -11 41 -30 -6 -10 -17 -71 -25 -136 -9 -64 -18 -121 -21 -126 -3
-4 -18 -8 -33 -8 -34 0 -44 14 -91 123 -18 42 -37 77 -40 77 -10 0 -20 -64
-20 -127 0 -53 0 -53 -31 -53 -28 0 -31 2 -25 25 15 58 35 232 29 253 -5 19
-1 22 26 22 18 0 42 -5 53 -11z m-673 -121 c13 -46 33 -109 46 -141 l23 -58
-24 -10 c-61 -22 -74 -22 -74 1 0 12 -8 47 -17 78 l-18 57 -5 -83 c-6 -84 -15
-101 -51 -102 -9 0 -39 33 -68 73 -56 78 -61 65 -15 -40 l22 -52 -30 -10 c-40
-14 -38 -15 -38 17 0 35 -55 221 -69 235 -18 18 -12 26 30 39 41 12 42 12 73
-23 17 -20 44 -52 59 -73 16 -20 32 -34 38 -31 5 4 9 32 9 64 0 90 8 119 39
130 44 16 47 13 70 -71z m1096 42 c25 -10 25 -10 9 -42 -27 -52 -54 -139 -54
-174 0 -61 57 -85 98 -41 21 23 72 161 72 197 0 17 3 18 30 9 30 -11 38 -23
21 -34 -5 -3 -22 -42 -37 -88 -34 -101 -73 -147 -128 -147 -71 0 -136 55 -136
114 0 17 11 66 25 109 14 43 25 87 25 98 0 22 14 22 75 -1z m-1515 -270 c22
-38 50 -79 62 -89 l20 -19 -41 -27 c-40 -25 -61 -26 -61 -3 0 13 -61 120 -66
116 -2 -2 3 -31 11 -63 24 -100 18 -125 -29 -125 -7 0 -39 23 -70 50 -31 28
-59 50 -62 50 -9 0 40 -81 64 -107 12 -13 22 -26 22 -28 0 -3 -13 -11 -29 -19
-28 -15 -29 -15 -35 9 -9 34 -104 196 -127 217 -19 16 -18 17 15 37 18 12 38
21 44 21 6 0 40 -22 76 -50 36 -27 70 -50 76 -50 7 0 9 12 5 33 -3 17 -9 54
-14 82 -11 56 -6 69 34 95 l29 19 17 -39 c10 -22 36 -71 59 -110z m1943 84
c43 -25 81 -52 84 -60 3 -8 0 -27 -7 -42 l-12 -27 -13 32 c-11 26 -70 72 -80
61 -5 -6 -35 -67 -35 -72 0 -3 13 -9 30 -13 l29 -8 -20 -32 -21 -33 -17 22
c-20 25 -35 19 -56 -22 -15 -28 -14 -30 12 -47 14 -10 44 -18 65 -18 44 0 46
-3 18 -33 -24 -26 -37 -22 -142 39 -63 37 -68 42 -55 57 25 29 115 187 122
215 4 15 10 27 14 27 3 0 41 -20 84 -46z m274 -182 l33 -28 -52 -55 c-63 -66
-108 -127 -108 -146 0 -19 60 -53 95 -53 l30 -1 -29 -25 c-15 -14 -32 -24 -37
-22 -15 5 -159 121 -159 128 0 4 18 27 41 51 57 61 129 155 129 168 0 19 24
11 57 -17z m-2670 -80 c18 -26 61 -77 96 -114 l64 -67 -38 -30 -38 -31 -12 22
c-15 30 -113 145 -153 181 l-30 27 34 30 c19 16 37 29 40 29 3 0 20 -21 37
-47z m1214 -248 c-14 -17 -21 -41 -21 -68 0 -41 15 -73 93 -200 57 -93 61
-167 12 -220 -34 -37 -44 -33 -32 14 14 51 2 87 -68 194 -54 85 -75 132 -75
173 0 39 31 94 64 114 43 26 51 24 27 -7z m-391 -156 c-37 -60 -27 -97 57
-231 49 -76 57 -97 60 -146 4 -61 -17 -109 -56 -130 -19 -11 -19 -9 -9 20 17
50 3 105 -45 178 -83 125 -101 173 -87 234 11 50 51 94 97 106 2 1 -6 -14 -17
-31z m798 -3 c-30 -51 -20 -100 38 -194 68 -108 77 -129 81 -180 5 -53 -18
-105 -57 -130 -23 -15 -24 -15 -15 4 5 11 10 43 10 71 0 44 -6 60 -46 121 -54
80 -83 136 -93 176 -10 44 10 102 49 136 47 41 59 39 33 -4z m-7 -685 c286
-29 533 -113 601 -204 16 -23 24 -50 28 -104 l5 -72 39 26 c85 58 216 72 296
32 115 -59 119 -220 11 -443 -53 -109 -146 -222 -201 -245 -73 -30 -171 14
-250 113 l-38 48 -57 -88 c-35 -53 -94 -124 -151 -179 l-93 -92 52 -6 c75 -10
203 -44 252 -67 62 -29 81 -53 69 -87 -19 -53 -168 -103 -414 -137 -144 -20
-708 -20 -875 -1 -146 18 -286 48 -346 76 -24 11 -35 18 -24 16 194 -44 403
-60 710 -53 257 6 384 20 525 58 181 48 210 112 78 169 l-50 21 -76 -39 c-135
-70 -206 -87 -367 -87 -132 0 -145 2 -235 33 -52 18 -129 54 -170 80 -153 95
-302 274 -384 460 -20 46 -36 86 -36 90 0 3 20 -29 45 -73 105 -184 232 -313
380 -385 106 -51 184 -70 292 -70 331 0 617 249 767 668 14 39 25 72 23 72 -1
0 -54 -13 -117 -29 -184 -46 -280 -56 -560 -56 -196 0 -281 4 -366 18 -255 41
-448 115 -499 194 l-16 24 39 -20 c56 -28 153 -58 267 -82 146 -30 576 -38
762 -15 298 38 493 122 493 213 0 39 -65 95 -152 131 -91 38 -285 78 -433 90
l-110 9 91 2 c51 0 138 -4 195 -9z m-26 -130 c210 -32 327 -91 295 -149 -27
-52 -186 -101 -395 -121 -281 -28 -692 20 -777 90 -23 19 -23 19 27 4 72 -22
267 -30 351 -14 79 15 150 44 158 66 20 51 -79 93 -237 101 -59 3 -106 8 -103
10 2 2 48 10 102 18 113 16 462 13 579 -5z m390 -2050 c20 -38 19 -43 -4 -30
-34 18 -111 10 -111 -11 0 -5 7 -26 15 -46 l15 -36 24 22 24 22 11 -32 c16
-46 14 -51 -16 -47 -26 3 -28 1 -25 -32 1 -19 7 -39 11 -43 16 -16 70 4 95 34
l24 29 7 -32 c11 -46 5 -49 -187 -104 -14 -4 -18 1 -18 18 0 32 -57 227 -71
244 -16 20 -8 26 74 50 100 30 114 30 132 -6z m-1082 -10 c20 -11 43 -20 51
-20 11 0 11 -8 3 -40 l-11 -40 -32 35 c-50 55 -102 44 -135 -28 -25 -55 -24
-98 2 -131 19 -25 27 -27 73 -24 65 4 71 -20 10 -41 -39 -14 -44 -13 -90 10
-70 34 -97 79 -92 150 9 120 118 184 221 129z m767 -59 c5 -11 10 -27 10 -36
0 -15 -2 -15 -22 -1 -24 17 -75 21 -96 8 -9 -6 -11 -21 -6 -50 7 -44 19 -51
55 -32 10 6 19 7 19 2 0 -5 3 -24 6 -41 l7 -32 -38 7 -38 7 6 -39 c3 -21 9
-49 13 -61 6 -21 3 -23 -29 -23 -19 0 -42 -3 -51 -6 -13 -5 -16 3 -16 52 0 33
-5 93 -11 134 -18 123 -21 114 36 121 107 13 144 10 155 -10z m-432 -8 c5 -10
22 -65 37 -123 15 -58 33 -120 41 -138 l13 -33 -52 3 c-51 3 -52 3 -55 38 -4
41 -15 50 -63 50 -38 0 -49 -12 -49 -51 0 -15 -7 -19 -36 -19 -20 0 -34 3 -32
8 48 93 110 229 115 252 5 26 10 30 39 30 22 0 36 -6 42 -17z"/>
<path d="M3450 2547 c-63 -25 -69 -35 -104 -162 l-25 -90 36 -53 c42 -62 80
-91 126 -99 107 -17 242 262 182 376 -27 54 -121 66 -215 28z"/>
</g>
</svg>
